<svg width="287" height="250" viewBox="0 0 287 250" fill="none" xmlns="http://www.w3.org/2000/svg">
<g clip-path="url(#clip0_89_640)">
<path d="M287 125C287 158.152 271.881 189.946 244.97 213.388C218.058 236.83 181.559 250 143.5 250C105.441 250 68.9417 236.83 42.0302 213.388C15.1187 189.946 0 158.152 0 125C0 91.8479 15.1187 60.0537 42.0302 36.6117C68.9417 13.1696 105.441 0 143.5 0C181.559 0 218.058 13.1696 244.97 36.6117C271.881 60.0537 287 91.8479 287 125ZM215.788 77.6562C214.507 76.544 212.981 75.6683 211.303 75.0815C209.624 74.4946 207.826 74.2087 206.018 74.2408C204.21 74.2729 202.427 74.6223 200.777 75.2683C199.127 75.9142 197.644 76.8433 196.416 78L134.119 147.141L96.5755 114.422C94.0252 112.352 90.6522 111.225 87.1669 111.279C83.6816 111.332 80.3563 112.562 77.8914 114.709C75.4266 116.856 74.0147 119.753 73.9532 122.789C73.8917 125.825 75.1854 128.763 77.5617 130.984L125.024 172.344C126.303 173.455 127.826 174.332 129.501 174.92C131.177 175.508 132.972 175.796 134.778 175.767C136.584 175.737 138.365 175.392 140.015 174.75C141.664 174.108 143.148 173.184 144.379 172.031L215.985 94.0625C218.427 91.8515 219.775 88.8949 219.742 85.8275C219.708 82.76 218.295 79.8263 215.806 77.6562H215.788Z" fill="#6035E1"/>
</g>
<defs>
<clipPath id="clip0_89_640">
<rect width="287" height="250" fill="white"/>
</clipPath>
</defs>
</svg>
