<svg width="43" height="42" viewBox="0 0 43 42" fill="none" xmlns="http://www.w3.org/2000/svg">
<path d="M21.4375 2.60553C23.4681 2.60553 25.4155 3.29181 26.8513 4.51339C28.2871 5.73497 29.0938 7.39179 29.0938 9.11936V10.4221H13.7812V9.11936C13.7812 7.39179 14.5879 5.73497 16.0237 4.51339C17.4595 3.29181 19.4069 2.60553 21.4375 2.60553ZM32.1562 10.4221V9.11936C32.1562 6.70076 31.027 4.38121 29.0168 2.671C27.0066 0.960787 24.2803 0 21.4375 0C18.5947 0 15.8684 0.960787 13.8582 2.671C11.848 4.38121 10.7188 6.70076 10.7188 9.11936V10.4221H0V36.4775C0 37.8595 0.645311 39.185 1.79397 40.1622C2.94263 41.1395 4.50055 41.6885 6.125 41.6885H36.75C38.3745 41.6885 39.9324 41.1395 41.081 40.1622C42.2297 39.185 42.875 37.8595 42.875 36.4775V10.4221H32.1562Z" fill="black"/>
</svg>
