<svg width="43" height="44" viewBox="0 0 43 44" fill="none" xmlns="http://www.w3.org/2000/svg">
<path d="M3.58333 44C3.58333 44 0 44 0 40.3333C0 36.6667 3.58333 25.6667 21.5 25.6667C39.4167 25.6667 43 36.6667 43 40.3333C43 44 39.4167 44 39.4167 44H3.58333ZM21.5 22C24.3511 22 27.0854 20.8411 29.1014 18.7782C31.1174 16.7153 32.25 13.9174 32.25 11C32.25 8.08262 31.1174 5.28473 29.1014 3.22183C27.0854 1.15893 24.3511 0 21.5 0C18.6489 0 15.9146 1.15893 13.8986 3.22183C11.8826 5.28473 10.75 8.08262 10.75 11C10.75 13.9174 11.8826 16.7153 13.8986 18.7782C15.9146 20.8411 18.6489 22 21.5 22Z" fill="black"/>
</svg>
