<svg width="45" height="42" viewBox="0 0 45 42" fill="none" xmlns="http://www.w3.org/2000/svg">
<path d="M0.140625 9.26278C0.424176 8.11177 1.12122 7.08407 2.11759 6.348C3.11397 5.61192 4.35061 5.2111 5.625 5.21118H39.375C40.6494 5.2111 41.886 5.61192 42.8824 6.348C43.8788 7.08407 44.5758 8.11177 44.8594 9.26278L22.5 21.9231L0.140625 9.26278ZM0 12.2383V30.748L16.3209 21.4775L0 12.2383ZM19.0153 23.007L0.537188 33.4995C0.993731 34.3913 1.71429 35.1447 2.61501 35.6719C3.51573 36.1991 4.55955 36.4785 5.625 36.4776H39.375C40.4403 36.4778 41.4837 36.1978 42.3839 35.6701C43.2841 35.1424 44.0041 34.3888 44.46 33.4968L25.9819 23.0044L22.5 24.9768L19.0153 23.007ZM28.6791 21.4801L45 30.748V12.2383L28.6791 21.4801Z" fill="black"/>
</svg>
