<svg width="202" height="176" viewBox="0 0 202 176" fill="none" xmlns="http://www.w3.org/2000/svg">
<g clip-path="url(#clip0_228_308)">
<path d="M138.875 66C138.875 74.7521 134.885 83.1458 127.782 89.3345C120.679 95.5232 111.045 99 101 99C90.9549 99 81.3213 95.5232 74.2183 89.3345C67.1154 83.1458 63.125 74.7521 63.125 66C63.125 57.2479 67.1154 48.8542 74.2183 42.6655C81.3213 36.4768 90.9549 33 101 33C111.045 33 120.679 36.4768 127.782 42.6655C134.885 48.8542 138.875 57.2479 138.875 66Z" fill="white"/>
<path fill-rule="evenodd" clip-rule="evenodd" d="M0 88C0 64.6609 10.641 42.2778 29.5822 25.7746C48.5234 9.2714 74.2131 0 101 0C127.787 0 153.477 9.2714 172.418 25.7746C191.359 42.2778 202 64.6609 202 88C202 111.339 191.359 133.722 172.418 150.225C153.477 166.729 127.787 176 101 176C74.2131 176 48.5234 166.729 29.5822 150.225C10.641 133.722 0 111.339 0 88ZM101 11C84.3574 11.0008 68.0534 15.096 53.9643 22.8143C39.8753 30.5326 28.5739 41.5603 21.361 54.6281C14.1482 67.6959 11.3169 82.2727 13.1931 96.6807C15.0693 111.089 21.5768 124.742 31.9665 136.07C40.9303 123.486 60.6631 110 101 110C141.337 110 161.057 123.475 170.034 136.07C180.423 124.742 186.931 111.089 188.807 96.6807C190.683 82.2727 187.852 67.6959 180.639 54.6281C173.426 41.5603 162.125 30.5326 148.036 22.8143C133.947 15.096 117.643 11.0008 101 11Z" fill="white"/>
</g>
<defs>
<clipPath id="clip0_228_308">
<rect width="202" height="176" fill="white"/>
</clipPath>
</defs>
</svg>
